<mxfile host="app.diagrams.net" modified="2023-10-13T09:43:01.180Z" agent="Mozilla/5.0 (Windows NT 10.0; Win64; x64; rv:109.0) Gecko/20100101 Firefox/110.0" etag="3pXy8BadABtfo2kAIoIy" version="22.0.4" type="github">
  <diagram name="Page-1" id="UGqlqNzbowdmk3IoseHW">
    <mxGraphModel dx="1185" dy="1047" grid="1" gridSize="10" guides="1" tooltips="1" connect="1" arrows="1" fold="1" page="1" pageScale="1" pageWidth="4681" pageHeight="3300" math="0" shadow="0">
      <root>
        <mxCell id="0" />
        <mxCell id="1" parent="0" />
        <mxCell id="J8EMbEoNs90NgbBhmGna-1" value="" style="rounded=0;whiteSpace=wrap;html=1;" vertex="1" parent="1">
          <mxGeometry x="970" y="835" width="410" height="535" as="geometry" />
        </mxCell>
        <mxCell id="J8EMbEoNs90NgbBhmGna-2" value="" style="rounded=0;whiteSpace=wrap;html=1;fillColor=#bac8d3;strokeColor=#23445d;" vertex="1" parent="1">
          <mxGeometry x="990" y="850" width="160" height="100" as="geometry" />
        </mxCell>
        <mxCell id="J8EMbEoNs90NgbBhmGna-4" value="" style="rounded=0;whiteSpace=wrap;html=1;fillColor=#bac8d3;strokeColor=#23445d;" vertex="1" parent="1">
          <mxGeometry x="1170" y="1110" width="190" height="240" as="geometry" />
        </mxCell>
        <mxCell id="J8EMbEoNs90NgbBhmGna-5" value="" style="rounded=0;whiteSpace=wrap;html=1;fillColor=#d0cee2;strokeColor=#56517e;" vertex="1" parent="1">
          <mxGeometry x="1180" y="1140" width="170" height="120" as="geometry" />
        </mxCell>
        <mxCell id="J8EMbEoNs90NgbBhmGna-6" value="spacestate_mqtt.ino" style="ellipse;whiteSpace=wrap;html=1;fillColor=#dae8fc;strokeColor=#6c8ebf;" vertex="1" parent="1">
          <mxGeometry x="1000" y="880" width="140" height="60" as="geometry" />
        </mxCell>
        <mxCell id="J8EMbEoNs90NgbBhmGna-30" style="edgeStyle=orthogonalEdgeStyle;rounded=0;orthogonalLoop=1;jettySize=auto;html=1;exitX=0.709;exitY=1.005;exitDx=0;exitDy=0;entryX=0.643;entryY=0.997;entryDx=0;entryDy=0;startArrow=classic;startFill=1;strokeColor=#FF1303;entryPerimeter=0;exitPerimeter=0;" edge="1" parent="1" source="J8EMbEoNs90NgbBhmGna-11" target="J8EMbEoNs90NgbBhmGna-5">
          <mxGeometry relative="1" as="geometry" />
        </mxCell>
        <mxCell id="J8EMbEoNs90NgbBhmGna-11" value="MQTT server" style="rounded=0;whiteSpace=wrap;html=1;fillColor=#d0cee2;strokeColor=#56517e;" vertex="1" parent="1">
          <mxGeometry x="1190" y="1170" width="140" height="70" as="geometry" />
        </mxCell>
        <mxCell id="J8EMbEoNs90NgbBhmGna-12" value="Raspberry pi 1" style="text;html=1;strokeColor=none;fillColor=none;align=center;verticalAlign=middle;whiteSpace=wrap;rounded=0;" vertex="1" parent="1">
          <mxGeometry x="1170" y="1110" width="100" height="30" as="geometry" />
        </mxCell>
        <mxCell id="J8EMbEoNs90NgbBhmGna-13" value="Home Assistant" style="text;html=1;strokeColor=none;fillColor=none;align=center;verticalAlign=middle;whiteSpace=wrap;rounded=0;" vertex="1" parent="1">
          <mxGeometry x="1180" y="1140" width="100" height="30" as="geometry" />
        </mxCell>
        <mxCell id="J8EMbEoNs90NgbBhmGna-18" value="ESP8266 Door sensor" style="text;html=1;strokeColor=none;fillColor=none;align=center;verticalAlign=middle;whiteSpace=wrap;rounded=0;" vertex="1" parent="1">
          <mxGeometry x="990" y="850" width="140" height="30" as="geometry" />
        </mxCell>
        <mxCell id="J8EMbEoNs90NgbBhmGna-22" style="edgeStyle=orthogonalEdgeStyle;rounded=0;orthogonalLoop=1;jettySize=auto;html=1;exitX=0.5;exitY=1;exitDx=0;exitDy=0;entryX=0.5;entryY=0;entryDx=0;entryDy=0;strokeColor=#FF1303;" edge="1" parent="1" source="J8EMbEoNs90NgbBhmGna-24" target="J8EMbEoNs90NgbBhmGna-25">
          <mxGeometry relative="1" as="geometry" />
        </mxCell>
        <mxCell id="J8EMbEoNs90NgbBhmGna-24" value="urbanum_bot.py" style="ellipse;whiteSpace=wrap;html=1;fillColor=#dae8fc;strokeColor=#6c8ebf;" vertex="1" parent="1">
          <mxGeometry x="990" y="1125" width="140" height="60" as="geometry" />
        </mxCell>
        <mxCell id="J8EMbEoNs90NgbBhmGna-25" value="&lt;div&gt;Telegram&lt;/div&gt;&lt;div&gt;channel&lt;br&gt;&lt;/div&gt;" style="shape=hexagon;perimeter=hexagonPerimeter2;whiteSpace=wrap;html=1;fixedSize=1;fillColor=#fad7ac;strokeColor=#b46504;" vertex="1" parent="1">
          <mxGeometry x="1000" y="1220" width="120" height="80" as="geometry" />
        </mxCell>
        <mxCell id="J8EMbEoNs90NgbBhmGna-26" value="Toggle GR&lt;br&gt;lights" style="shape=parallelogram;perimeter=parallelogramPerimeter;whiteSpace=wrap;html=1;fixedSize=1;fillColor=#d5e8d4;strokeColor=#82b366;" vertex="1" parent="1">
          <mxGeometry x="1200" y="1280" width="120" height="60" as="geometry" />
        </mxCell>
        <mxCell id="J8EMbEoNs90NgbBhmGna-28" style="edgeStyle=orthogonalEdgeStyle;rounded=0;orthogonalLoop=1;jettySize=auto;html=1;exitX=0.54;exitY=0.026;exitDx=0;exitDy=0;entryX=0.5;entryY=1;entryDx=0;entryDy=0;startArrow=classic;startFill=1;endArrow=none;endFill=0;strokeColor=#FF1303;exitPerimeter=0;" edge="1" parent="1" source="J8EMbEoNs90NgbBhmGna-26" target="J8EMbEoNs90NgbBhmGna-5">
          <mxGeometry relative="1" as="geometry" />
        </mxCell>
        <mxCell id="J8EMbEoNs90NgbBhmGna-31" value="" style="rounded=0;whiteSpace=wrap;html=1;fillColor=#bac8d3;strokeColor=#23445d;" vertex="1" parent="1">
          <mxGeometry x="990" y="970" width="200" height="110" as="geometry" />
        </mxCell>
        <mxCell id="J8EMbEoNs90NgbBhmGna-32" value="Webserver" style="text;html=1;strokeColor=none;fillColor=none;align=center;verticalAlign=middle;whiteSpace=wrap;rounded=0;" vertex="1" parent="1">
          <mxGeometry x="990" y="970" width="70" height="30" as="geometry" />
        </mxCell>
        <mxCell id="J8EMbEoNs90NgbBhmGna-35" style="edgeStyle=orthogonalEdgeStyle;rounded=0;orthogonalLoop=1;jettySize=auto;html=1;exitX=1;exitY=0.5;exitDx=0;exitDy=0;entryX=0;entryY=0.5;entryDx=0;entryDy=0;endArrow=classic;endFill=1;strokeColor=#FF1303;startArrow=classic;startFill=1;" edge="1" parent="1" source="J8EMbEoNs90NgbBhmGna-33" target="J8EMbEoNs90NgbBhmGna-34">
          <mxGeometry relative="1" as="geometry" />
        </mxCell>
        <mxCell id="J8EMbEoNs90NgbBhmGna-38" style="edgeStyle=orthogonalEdgeStyle;rounded=0;orthogonalLoop=1;jettySize=auto;html=1;exitX=1;exitY=0.5;exitDx=0;exitDy=0;entryX=0;entryY=0.5;entryDx=0;entryDy=0;startArrow=classic;startFill=1;strokeColor=#FF1303;" edge="1" parent="1" source="J8EMbEoNs90NgbBhmGna-33" target="J8EMbEoNs90NgbBhmGna-37">
          <mxGeometry relative="1" as="geometry" />
        </mxCell>
        <mxCell id="J8EMbEoNs90NgbBhmGna-42" style="edgeStyle=orthogonalEdgeStyle;rounded=0;orthogonalLoop=1;jettySize=auto;html=1;exitX=0.5;exitY=1;exitDx=0;exitDy=0;entryX=0;entryY=0.5;entryDx=0;entryDy=0;startArrow=classic;startFill=1;strokeColor=#FF1303;" edge="1" parent="1" source="J8EMbEoNs90NgbBhmGna-33" target="J8EMbEoNs90NgbBhmGna-11">
          <mxGeometry relative="1" as="geometry">
            <Array as="points">
              <mxPoint x="1080" y="1110" />
              <mxPoint x="1150" y="1110" />
              <mxPoint x="1150" y="1205" />
            </Array>
          </mxGeometry>
        </mxCell>
        <mxCell id="J8EMbEoNs90NgbBhmGna-33" value="urbanum.fi/state.json" style="rhombus;whiteSpace=wrap;html=1;fillColor=#fff2cc;strokeColor=#d6b656;" vertex="1" parent="1">
          <mxGeometry x="1000" y="1000" width="160" height="62.5" as="geometry" />
        </mxCell>
        <mxCell id="J8EMbEoNs90NgbBhmGna-34" value="SpaceAPI" style="shape=hexagon;perimeter=hexagonPerimeter2;whiteSpace=wrap;html=1;fixedSize=1;fillColor=#fad7ac;strokeColor=#b46504;" vertex="1" parent="1">
          <mxGeometry x="1210" y="970" width="120" height="38.75" as="geometry" />
        </mxCell>
        <mxCell id="J8EMbEoNs90NgbBhmGna-37" value="Map of campus displaying all states " style="shape=document;whiteSpace=wrap;html=1;boundedLbl=1;fillColor=#d5e8d4;strokeColor=#82b366;" vertex="1" parent="1">
          <mxGeometry x="1210" y="1020" width="120" height="60" as="geometry" />
        </mxCell>
        <mxCell id="J8EMbEoNs90NgbBhmGna-40" style="edgeStyle=orthogonalEdgeStyle;rounded=0;orthogonalLoop=1;jettySize=auto;html=1;exitX=0.5;exitY=1;exitDx=0;exitDy=0;entryX=0.483;entryY=0.023;entryDx=0;entryDy=0;entryPerimeter=0;startArrow=classic;startFill=1;strokeColor=#FF1303;" edge="1" parent="1" source="J8EMbEoNs90NgbBhmGna-33" target="J8EMbEoNs90NgbBhmGna-24">
          <mxGeometry relative="1" as="geometry" />
        </mxCell>
        <mxCell id="J8EMbEoNs90NgbBhmGna-41" style="edgeStyle=orthogonalEdgeStyle;rounded=0;orthogonalLoop=1;jettySize=auto;html=1;exitX=0.5;exitY=1;exitDx=0;exitDy=0;entryX=0.5;entryY=0;entryDx=0;entryDy=0;strokeColor=#FF1303;" edge="1" parent="1" source="J8EMbEoNs90NgbBhmGna-6" target="J8EMbEoNs90NgbBhmGna-33">
          <mxGeometry relative="1" as="geometry" />
        </mxCell>
      </root>
    </mxGraphModel>
  </diagram>
</mxfile>
